# xmcd
#
# Track frame offsets: 
#        183
#        19773
#        37255
#        58655
#        72113
#        87755
#        107298
#        125035
#        139880
#        160243
#        173968
#        194323
#        214610
#        228725
#
# Disc length: 3291 seconds
#
# Revision: 0
# Processed by: cddbd v1.5.1PL2 Copyright (c) Steve Scherf et al.
# Submitted via: ExactAudioCopy v0.95b4
#
DISCID=c60cd90e
DTITLE=Gianni Morandi - Amici Miei
DYEAR=1990
DGENRE=Country
TTITLE0=01. Emozioni
TTITLE1=02. Come Posso Ancora Amarti
TTITLE2=03. Tu Che Cosa Mi Dai
TTITLE3=04. Che Cosa C'e
TTITLE4=05. Troppo Bella
TTITLE5=06. Canzone Stonate
TTITLE6=07. La Storia
TTITLE7=08. Dedicato
TTITLE8=09. Mi Manchi
TTITLE9=10. Angela
TTITLE10=11. 1950
TTITLE11=12. Nuova Gente
TTITLE12=13. Questi Figli
TTITLE13=14. Canta Ancora Per Me
EXTD=
EXTT0=
EXTT1=
EXTT2=
EXTT3=
EXTT4=
EXTT5=
EXTT6=
EXTT7=
EXTT8=
EXTT9=
EXTT10=
EXTT11=
EXTT12=
EXTT13=
PLAYORDER=
